#!OML:ASF F:\VICON\USERDATA\INSTALL\rory3\rory3.ASF
:FULLY-SPECIFIED
:DEGREES
47
root 0.3424363952001064 17.93036074117448 21.51143446843917 2.175049135962345 -3.0650490541533757 -0.34941624265434323
lfemur -2.7668737909327383 -1.1225482996176503 -23.357332785544674
ltibia 62.75636064848471
lfoot 5.697975085538979 -12.950828582597055
ltoes -5.768476635610222
rfemur -30.629308706873044 1.2554414152120423 25.264564925020263
rtibia 39.783303843510254
rfoot 3.0000741084097395 -3.5826402759103444
rtoes -4.44059191603354
lowerback 12.333020728188112 -1.4367097080199285 -1.8777495501635537
upperback -1.2048469090634724 -1.9948441288295131 1.7315605440024304
thorax -8.042513154769093 -0.3948146497810452 2.7948346252127294
lowerneck -19.355474041945904 -3.2217966372450597 -2.4654650550767503
upperneck 14.315954356381518 -4.2779730707722585 2.3567495915395855
head 7.528451269822645 -1.923462202655252 0.7361692541072293
lclavicle 3.072452584612245e-16 -4.306739325979878e-16
lhumerus -39.87580684029099 -18.28614199349135 98.66080209080722
lradius 111.35043401125317
lwrist 31.73245365116691
lhand -26.275266843865484 3.5752108477911326
lfingers 7.125020000000001
lthumb 0.3786146326621828 33.868254788038385
rclavicle 3.072379149893665e-16 -4.306781243394101e-16
rhumerus -55.982847697472124 4.805754125077248 -94.93383095545974
rradius 102.54826591257354
rwrist -19.486912420577465
rhand -18.522580945169025 37.72302992588158
rfingers 7.125020000000001
rthumb 7.687680866023863 7.702567920587743
48
root 0.3242773568857948 17.74860828559277 22.03846336031501 1.7724423700135752 -3.3976964090063904 -1.012418605027493
lfemur -5.782630045363279 -0.3536612675457712 -22.31036916155615
ltibia 69.21520132195292
lfoot 5.273448639392013 -12.564685007676463
ltoes -4.912747571615758
rfemur -30.364794699219217 1.3128525180683461 25.354595134619228
rtibia 42.78161580065461
rfoot 1.4933180314934607 -2.960827339927053
rtoes -5.038006397219775
lowerback 12.807858830059951 -1.2056869719484418 -1.5142461454855216
upperback -0.9752220907483784 -1.8855802582129122 1.6923182352486026
thorax -8.022358964462148 -0.349691226277266 2.7031418718078504
lowerneck -19.550706794547143 -3.3146588517343445 -2.3991666749029488
upperneck 14.257179453396994 -4.359601315501535 2.2922683489812083
head 7.4795158210039405 -1.968298495137082 0.7003156329723303
lclavicle 3.072452584612245e-16 -4.306739325979878e-16
lhumerus -39.49170857659795 -17.10090025656885 98.89364902955536
lradius 110.58184370115302
lwrist 31.642475891327226
lhand -26.292538816739302 3.600573145833757
lfingers 7.125020000000001
lthumb 0.24515049913261872 33.75301565610393
rclavicle 3.0723791498936657e-16 -4.3067812433941007e-16
rhumerus -54.24001479014983 4.8220169561800414 -94.8499122535382
rradius 102.55554381532333
rwrist -19.5891160555238
rhand -18.50230187925204 37.757953599892076
rfingers 7.125020000000001
rthumb 7.7599736743062495 7.740749687985589
49
root 0.30049568023819345 17.564008853281162 22.456385338512902 1.48715949123785 -3.5291965635362494 -1.7695311079775025
lfemur -8.780361670685204 0.6000630196889941 -20.9075630964326
ltibia 74.28445249929035
lfoot 5.550045683286829 -11.486729283821322
ltoes -4.8692094577615865
rfemur -27.95356907240147 1.666105556317853 25.99062741721288
rtibia 46.95559227059012
rfoot -0.3833578268391541 -2.2944615530573493
rtoes -5.824021616295029
lowerback 13.360715157123913 -0.9027000316967061 -1.0992358502585977
upperback -0.7344244959279893 -1.678237479782531 1.6511387088349445
thorax -8.013667631678418 -0.2634390701698728 2.5704301856522833
lowerneck -19.600540297051758 -3.3301232690907208 -2.299815076703915
upperneck 14.227029037572972 -4.423916312516996 2.2590458531692934
head 7.439202138516832 -2.0208452201138845 0.6557875406132887
lclavicle 3.072452584612245e-16 -4.306739325979878e-16
lhumerus -41.352826018239455 -16.47624783178059 98.81387898134065
lradius 109.5426627649189
lwrist 31.537787025587548
lhand -26.19236741400114 3.6532489140363853
lfingers 7.125020000000001
lthumb 0.3256723112211458 33.73909178167413
rclavicle 3.072379149893665e-16 -4.306781243394101e-16
rhumerus -52.2239798327585 4.959035916885137 -94.82832764407098
rradius 102.76348300297332
rwrist -19.673381647335265
rhand -18.556319313960426 37.70020799694567
rfingers 7.125020000000001
rthumb 7.720045906024392 7.647642653724597
50
root 0.2706055373969386 17.380486682777626 22.61145539534094 1.3212087100006824 -3.52970137440444 -2.572406386131517
lfemur -11.843394690408468 1.4463501065580289 -19.664800778841247
ltibia 78.39073712545175
lfoot 5.582307282912068 -10.469403403290837
ltoes -4.774700479533293
rfemur -27.788593130316997 1.7978700697331318 26.503263175566996
rtibia 51.17994296466694
rfoot -2.9925107920167133 -1.9967794778289125
rtoes -6.168617775822902
lowerback 13.920504197408984 -0.578568389127868 -0.5366433917354139
upperback -0.483111798007814 -1.2305195749212061 1.6988934528384623
thorax -8.015977965664979 -0.20411295687078046 2.334492923509869
lowerneck -19.714415330545073 -3.4450945803900215 -2.2516020399489625
upperneck 14.159795037619467 -4.541444498400197 2.2308170037283612
head 7.40541013808828 -2.087344278611417 0.6065709872211423
lclavicle 3.072452584612245e-16 -4.306739325979878e-16
lhumerus -42.038171480050295 -15.505203118955937 99.00219097248034
lradius 107.94049045546002
lwrist 31.65851102532096
lhand -26.09258510933321 3.7396676798650765
lfingers 7.125020000000001
lthumb 0.38225098376178923 33.83415973502903
rclavicle 3.0723791498936726e-16 -4.306781243394097e-16
rhumerus -50.38060497669594 5.117306966613734 -94.85256783306721
rradius 103.09149036924288
rwrist -19.675632114896523
rhand -18.5001518807 37.735328310366405
rfingers 7.125020000000001
rthumb 7.764873435873856 7.618058998442482
51
root 0.24422436624461857 17.242035118917865 22.67727814629204 1.3520876704758629 -3.414343725459956 -3.2400639510502174
lfemur -14.912647748697635 2.3768785516804085 -18.102007797288877
ltibia 81.99102538870527
lfoot 5.863079899944936 -9.80935318092373
ltoes -4.985536733938617
rfemur -26.223262213509443 2.243078043292599 27.453982738564637
rtibia 54.29071274753804
rfoot -5.930890850560113 -2.5967740798313312
rtoes -6.305643946769072
lowerback 14.420583681603402 -0.27814208715232314 0.2732411633630665
upperback -0.25040367909393435 -0.728367474070591 1.777308195648475
thorax -8.051301239637652 -0.17705542478815606 1.8958674846182542
lowerneck -19.717328572775216 -3.5544018365117402 -2.198323653659916
upperneck 14.075368560591237 -4.6612765327499694 2.258106276860483
head 7.381112157298396 -2.170416466512455 0.5608247847182612
lclavicle 3.072452584612245e-16 -4.306739325979878e-16
lhumerus -45.19704309412214 -15.050798710440828 98.77890235917997
lradius 106.32856939190252
lwrist 31.840101771394096
lhand -26.098257837943866 3.7627146540746037
lfingers 7.125020000000001
lthumb 0.42990047563356015 33.9119044239103
rclavicle 3.072379149893671e-16 -4.3067812433940977e-16
rhumerus -48.49382524613197 5.371466822441906 -94.84687757719983
rradius 103.42936736344825
rwrist -19.628052318859336
rhand -18.534206561927334 37.621609452805764
rfingers 7.125020000000001
rthumb 7.689842031704154 7.452685380788992
52
root 0.22500864205365656 17.150731050806442 22.8856325303703 1.5119737005126268 -3.0719293601930175 -3.7280535384842386
lfemur -19.14923093853315 2.932014039141498 -16.99521798902264
ltibia 85.00942454641799
lfoot 5.4693555256994495 -9.773507808373612
ltoes -5.840520577323644
rfemur -24.10990125875993 3.132460709028252 28.869579875870404
rtibia 56.13284785571478
rfoot -9.203245650584984 -4.3416919821616755
rtoes -6.344474796471877
lowerback 14.78470985749141 0.005726823454481722 1.1421871571732103
upperback -0.05713642366431071 -0.16712526161604857 1.9355146546433928
thorax -8.080529895889107 -0.0703113275855265 1.540781659558679
lowerneck -19.686160501604952 -3.717448130343583 -2.1528841650187918
upperneck 13.919504788652517 -4.853973683290629 2.28952662174886
head 7.3700696881349606 -2.2623734191278837 0.528854898505223
lclavicle 3.0724525846122443e-16 -4.306739325979878e-16
lhumerus -46.33376485611898 -14.065694706122482 98.9887414088372
lradius 105.08107184255603
lwrist 32.04398569971006
lhand -26.025183324537927 3.8325635359013592
lfingers 7.125020000000001
lthumb 0.5020649930547578 34.00737031242638
rclavicle 3.0723791498936686e-16 -4.306781243394099e-16
rhumerus -47.01975673180959 5.564324861025714 -94.8882751679017
rradius 103.73024864935344
rwrist -19.55001881331299
rhand -18.524350125498504 37.55590104713948
rfingers 7.125020000000001
rthumb 7.709763681665501 7.399976975763665
53
root 0.21308749090538118 17.10417159720489 22.99281590585745 1.712608810151476 -2.6425817905177436 -3.957169058043447
lfemur -19.844964938754867 3.855819851189033 -15.482008960374245
ltibia 86.86521610937291
lfoot 4.540664629204419 -10.266554648761955
ltoes -6.898474267303486
rfemur -22.93520938841929 4.007892314607173 30.31950568036105
rtibia 57.27304031499621
rfoot -12.127881863817516 -6.819280019675887
rtoes -5.406682085218911
lowerback 15.000918336332925 0.2037533441032373 1.9179981203310974
upperback 0.0791703306041538 0.40165110748929256 2.1386981939791485
thorax -8.16697146981218 0.058834781231114186 1.1618382192631487
lowerneck -19.583906843665122 -3.8729210781526184 -2.104435431173157
upperneck 13.757780189218096 -5.09945263351137 2.355528943444256
head 7.380607037270941 -2.334877047952603 0.5207941758840313
lclavicle 3.0724525846122443e-16 -4.306739325979878e-16
lhumerus -49.75158575033053 -13.856964905560705 98.75467508894143
lradius 104.38148668270743
lwrist 32.075478810188756
lhand -25.92180203968396 3.7953373948409688
lfingers 7.125020000000001
lthumb 0.5753918364980177 33.931371106503754
rclavicle 3.072379149893672e-16 -4.306781243394097e-16
rhumerus -45.25363982117423 5.917910701981267 -94.89188617689578
rradius 103.94693811172434
rwrist -19.50281626274532
rhand -18.5963788470155 37.437839051335786
rfingers 7.125020000000001
rthumb 7.700104065729609 7.3989154118002896
